<svg xmlns="http://www.w3.org/2000/svg" width="805" height="600"><rect width="805" height="600" x="0" y="0" fill="#FFFFFF" id="background"/><g transform="translate(10,10)" id="visualization"><g><rect x="0" y="-1.1368683772161603e-13" height="21.21673004157238" width="5" fill="black"><title>2001: 1</title></rect><rect x="260" y="25" height="74.25855514550332" width="5" fill="black"><title>italy: 3.5</title></rect><rect x="0" y="26.216730041572266" height="21.216730041572387" width="5" fill="black"><title>2002: 1</title></rect><rect x="0" y="52.43346008314465" height="21.216730041572376" width="5" fill="black"><title>2003: 1</title></rect><rect x="260" y="104.25855514550332" height="21.216730041572376" width="5" fill="black"><title>germany: 1</title></rect><rect x="0" y="78.65019012471703" height="21.216730041572376" width="5" fill="black"><title>2004: 1</title></rect><rect x="260" y="130.4752851870757" height="21.21673004157236" width="5" fill="black"><title>finland: 1</title></rect><rect x="0" y="104.8669201662894" height="21.216730041572376" width="5" fill="black"><title>2005: 1</title></rect><rect x="0" y="131.08365020786178" height="21.21673004157239" width="5" fill="black"><title>2006: 1</title></rect><rect x="260" y="156.69201522864807" height="10.60836502078618" width="5" fill="black"><title>netherlands: 0.5</title></rect><rect x="0" y="157.30038024943417" height="21.21673004157239" width="5" fill="black"><title>2007: 1</title></rect><rect x="260" y="172.30038024943426" height="31.82509506235857" width="5" fill="black"><title>japan: 1.5</title></rect><rect x="0" y="183.51711029100656" height="21.21673004157239" width="5" fill="black"><title>2008: 1</title></rect><rect x="260" y="209.12547531179283" height="42.43346008314475" width="5" fill="black"><title>china: 2</title></rect><rect x="0" y="209.73384033257895" height="21.21673004157239" width="5" fill="black"><title>2009: 1</title></rect><rect x="0" y="235.95057037415134" height="21.21673004157239" width="5" fill="black"><title>2010: 1</title></rect><rect x="260" y="256.5589353949376" height="99.01140678287646" width="5" fill="black"><title>cambodia: 4.666666663000001</title></rect><rect x="0" y="262.16730041572373" height="21.21673002035567" width="5" fill="black"><title>2011: 0.999999999</title></rect><rect x="0" y="288.3840304360794" height="21.21673002035567" width="5" fill="black"><title>2012: 0.999999999</title></rect><rect x="0" y="314.60076045643507" height="21.21673002035567" width="5" fill="black"><title>2013: 0.999999999</title></rect><rect x="0" y="340.81749047679074" height="21.21673004157236" width="5" fill="black"><title>2014: 1</title></rect><rect x="260" y="360.57034217781404" height="58.34600761432404" width="5" fill="black"><title>nepal: 2.75</title></rect><rect x="260" y="423.9163497921381" height="17.680608360904728" width="5" fill="black"><title>india: 0.833333333</title></rect><rect x="0" y="367.0342205183631" height="15.912547531179257" width="5" fill="black"><title>2015: 0.75</title></rect><rect x="0" y="387.94676804954236" height="10.60836502078621" width="5" fill="black"><title>2016: 0.5</title></rect><rect x="0" y="403.55513307032857" height="21.21673004157236" width="5" fill="black"><title>2017: 1</title></rect><rect x="0" y="429.7718631119009" height="19.448669211846948" width="5" fill="black"><title>2018: 0.916666667</title></rect><rect x="260" y="446.5969581530428" height="54.80988595487315" width="5" fill="black"><title>UK: 2.5833333339999998</title></rect><rect x="0" y="454.2205323237479" height="21.21673004157236" width="5" fill="black"><title>2019: 1</title></rect><rect x="0" y="480.43726236532024" height="21.21673004157236" width="5" fill="black"><title>2020: 1</title></rect><rect x="0" y="506.6539924068926" height="17.680608360904785" width="5" fill="black"><title>2021: 0.833333333</title></rect><rect x="260" y="506.40684410791596" height="12.376425850511623" width="5" fill="black"><title>sudan: 0.583333333</title></rect><rect x="0" y="529.3346007677974" height="10.60836502078621" width="5" fill="black"><title>2022: 0.5</title></rect><rect x="260" y="523.7832699584276" height="3.536121680667634" width="5" fill="black"><title>liberia: 0.166666667</title></rect><rect x="0" y="544.9429657885836" height="14.14448668023715" width="5" fill="black"><title>2023: 0.666666666</title></rect><rect x="260" y="532.3193916390952" height="7.072243340118575" width="5" fill="black"><title>malawi: 0.333333333</title></rect><rect x="0" y="564.0874524688207" height="15.912547531179257" width="5" fill="black"><title>2024: 0.75</title></rect><rect x="260" y="544.3916349792138" height="10.60836502078621" width="5" fill="black"><title>bangladesh: 0.5</title></rect><rect x="520" y="47.5" height="196.25475282089434" width="5" fill="black"><title>architecture: 9.249999997000002</title></rect><rect x="520" y="248.75475282089434" height="95.47528518707571" width="5" fill="black"><title>design: 4.5</title></rect><rect x="520" y="349.23003800797005" height="72.49049429456113" width="5" fill="black"><title>development: 3.416666666</title></rect><rect x="520" y="426.7205323025312" height="67.18631180538478" width="5" fill="black"><title>environmental engineering: 3.1666666670000003</title></rect><rect x="520" y="498.90684410791596" height="33.59315589208404" width="5" fill="black"><title>humanitarian response: 1.5833333330000001</title></rect><rect x="780" y="40.00000000000006" height="129.06844110037645" width="5" fill="black"><title>student: 6.083333334</title></rect><rect x="780" y="174.0684411003765" height="42.43346008314475" width="5" fill="black"><title>assistant PM: 2</title></rect><rect x="780" y="221.50190118352126" height="10.60836502078618" width="5" fill="black"><title>intern: 0.5</title></rect><rect x="780" y="237.11026620430744" height="129.0684410791598" width="5" fill="black"><title>project manager: 6.083333333000001</title></rect><rect x="780" y="371.17870728346725" height="10.60836502078621" width="5" fill="black"><title>team leader: 0.5</title></rect><rect x="780" y="386.78707230425346" height="63.65019008228364" width="5" fill="black"><title>consultant: 2.999999998</title></rect><rect x="780" y="455.4372623865371" height="35.36121670059276" width="5" fill="black"><title>lecturer: 1.6666666649999997</title></rect><rect x="780" y="495.79847908712986" height="44.20152091287014" width="5" fill="black"><title>assistant researcher: 2.083333333</title></rect></g><g fill="none" stroke-opacity="0.7"><g style="mix-blend-mode: multiply;"><path d="M5,10.608365020786076C132.5,10.608365020786076,132.5,35.60836502078619,260,35.60836502078619" stroke="#cccccc" stroke-width="21.21673004157238"/><title>2001 → italy: 1</title></g><g style="mix-blend-mode: multiply;"><path d="M5,36.82509506235846C132.5,36.82509506235846,132.5,56.825095062358564,260,56.825095062358564" stroke="#cccccc" stroke-width="21.21673004157238"/><title>2002 → italy: 1</title></g><g style="mix-blend-mode: multiply;"><path d="M5,63.04182510393084C132.5,63.04182510393084,132.5,114.86692016628952,260,114.86692016628952" stroke="#cccccc" stroke-width="21.21673004157238"/><title>2003 → germany: 1</title></g><g style="mix-blend-mode: multiply;"><path d="M5,89.25855514550322C132.5,89.25855514550322,132.5,141.0836502078619,260,141.0836502078619" stroke="#cccccc" stroke-width="21.21673004157238"/><title>2004 → finland: 1</title></g><g style="mix-blend-mode: multiply;"><path d="M5,115.4752851870756C132.5,115.4752851870756,132.5,78.04182510393095,260,78.04182510393095" stroke="#cccccc" stroke-width="21.21673004157238"/><title>2005 → italy: 1</title></g><g style="mix-blend-mode: multiply;"><path d="M5,136.38783271825488C132.5,136.38783271825488,132.5,93.95437263511022,260,93.95437263511022" stroke="#cccccc" stroke-width="10.60836502078619"/><title>2006 → italy: 0.5</title></g><g style="mix-blend-mode: multiply;"><path d="M5,146.99619773904107C132.5,146.99619773904107,132.5,161.99619773904118,260,161.99619773904118" stroke="#cccccc" stroke-width="10.60836502078619"/><title>2006 → netherlands: 0.5</title></g><g style="mix-blend-mode: multiply;"><path d="M5,167.90874527022035C132.5,167.90874527022035,132.5,182.90874527022044,260,182.90874527022044" stroke="#cccccc" stroke-width="21.21673004157238"/><title>2007 → japan: 1</title></g><g style="mix-blend-mode: multiply;"><path d="M5,188.82129280139966C132.5,188.82129280139966,132.5,198.82129280139975,260,198.82129280139975" stroke="#cccccc" stroke-width="10.60836502078619"/><title>2008 → japan: 0.5</title></g><g style="mix-blend-mode: multiply;"><path d="M5,199.42965782218585C132.5,199.42965782218585,132.5,214.42965782218593,260,214.42965782218593" stroke="#cccccc" stroke-width="10.60836502078619"/><title>2008 → china: 0.5</title></g><g style="mix-blend-mode: multiply;"><path d="M5,220.34220535336513C132.5,220.34220535336513,132.5,230.3422053533652,260,230.3422053533652" stroke="#cccccc" stroke-width="21.21673004157238"/><title>2009 → china: 1</title></g><g style="mix-blend-mode: multiply;"><path d="M5,241.25475288454444C132.5,241.25475288454444,132.5,246.2547528845445,260,246.2547528845445" stroke="#cccccc" stroke-width="10.60836502078619"/><title>2010 → china: 0.5</title></g><g style="mix-blend-mode: multiply;"><path d="M5,251.86311790533063C132.5,251.86311790533063,132.5,261.8631179053307,260,261.8631179053307" stroke="#cccccc" stroke-width="10.60836502078619"/><title>2010 → cambodia: 0.5</title></g><g style="mix-blend-mode: multiply;"><path d="M5,272.77566542590154C132.5,272.77566542590154,132.5,277.7756654259016,260,277.7756654259016" stroke="#cccccc" stroke-width="21.21673002035565"/><title>2011 → cambodia: 0.999999999</title></g><g style="mix-blend-mode: multiply;"><path d="M5,298.9923954462572C132.5,298.9923954462572,132.5,298.99239544625726,260,298.99239544625726" stroke="#cccccc" stroke-width="21.21673002035565"/><title>2012 → cambodia: 0.999999999</title></g><g style="mix-blend-mode: multiply;"><path d="M5,325.2091254666129C132.5,325.2091254666129,132.5,320.20912546661293,260,320.20912546661293" stroke="#cccccc" stroke-width="21.21673002035565"/><title>2013 → cambodia: 0.999999999</title></g><g style="mix-blend-mode: multiply;"><path d="M5,346.12167298718384C132.5,346.12167298718384,132.5,336.1216729871839,260,336.1216729871839" stroke="#cccccc" stroke-width="10.60836502078619"/><title>2014 → cambodia: 0.5</title></g><g style="mix-blend-mode: multiply;"><path d="M5,354.07794675277347C132.5,354.07794675277347,132.5,363.22243343301056,260,363.22243343301056" stroke="#cccccc" stroke-width="5.304182510393095"/><title>2014 → nepal: 0.25</title></g><g style="mix-blend-mode: multiply;"><path d="M5,359.3821292631666C132.5,359.3821292631666,132.5,426.5684410473346,260,426.5684410473346" stroke="#cccccc" stroke-width="5.304182510393095"/><title>2014 → india: 0.25</title></g><g style="mix-blend-mode: multiply;"><path d="M5,374.9904942839527C132.5,374.9904942839527,132.5,368.52661594340367,260,368.52661594340367" stroke="#cccccc" stroke-width="5.304182510393095"/><title>2015 → nepal: 0.25</title></g><g style="mix-blend-mode: multiply;"><path d="M5,369.6863117735596C132.5,369.6863117735596,132.5,344.0779467527735,260,344.0779467527735" stroke="#cccccc" stroke-width="5.304182510393095"/><title>2015 → cambodia: 0.25</title></g><g style="mix-blend-mode: multiply;"><path d="M5,380.29467679434583C132.5,380.29467679434583,132.5,431.8726235577277,260,431.8726235577277" stroke="#cccccc" stroke-width="5.304182510393095"/><title>2015 → india: 0.25</title></g><g style="mix-blend-mode: multiply;"><path d="M5,390.5988593047389C132.5,390.5988593047389,132.5,349.38212926316663,260,349.38212926316663" stroke="#cccccc" stroke-width="5.304182510393095"/><title>2016 → cambodia: 0.25</title></g><g style="mix-blend-mode: multiply;"><path d="M5,395.903041815132C132.5,395.903041815132,132.5,373.8307984537968,260,373.8307984537968" stroke="#cccccc" stroke-width="5.304182510393095"/><title>2016 → nepal: 0.25</title></g><g style="mix-blend-mode: multiply;"><path d="M5,415.0475285059775C132.5,415.0475285059775,132.5,386.2072243149168,260,386.2072243149168" stroke="#cccccc" stroke-width="19.448669211846923"/><title>2017 → nepal: 0.916666667</title></g><g style="mix-blend-mode: multiply;"><path d="M5,404.4391634851913C132.5,404.4391634851913,132.5,352.9182509332259,260,352.9182509332259" stroke="#cccccc" stroke-width="1.7680608297254548"/><title>2017 → cambodia: 0.083333333</title></g><g style="mix-blend-mode: multiply;"><path d="M5,435.07604562229403C132.5,435.07604562229403,132.5,401.2357414312334,260,401.2357414312334" stroke="#cccccc" stroke-width="10.60836502078619"/><title>2018 → nepal: 0.5</title></g><g style="mix-blend-mode: multiply;"><path d="M5,444.8003802282175C132.5,444.8003802282175,132.5,451.01711024857315,260,451.01711024857315" stroke="#cccccc" stroke-width="8.840304191060735"/><title>2018 → UK: 0.416666667</title></g><g style="mix-blend-mode: multiply;"><path d="M5,464.8288973445341C132.5,464.8288973445341,132.5,466.04562736488975,260,466.04562736488975" stroke="#cccccc" stroke-width="21.21673004157238"/><title>2019 → UK: 1</title></g><g style="mix-blend-mode: multiply;"><path d="M5,491.92965780096915C132.5,491.92965780096915,132.5,486.37832699159935,260,486.37832699159935" stroke="#cccccc" stroke-width="19.448669211846923"/><title>2020 → UK: 0.916666667</title></g><g style="mix-blend-mode: multiply;"><path d="M5,509.3060836620891C132.5,509.3060836620891,132.5,498.7547528527194,260,498.7547528527194" stroke="#cccccc" stroke-width="5.304182510393095"/><title>2021 → UK: 0.25</title></g><g style="mix-blend-mode: multiply;"><path d="M5,481.32129278018294C132.5,481.32129278018294,132.5,354.6863117629514,260,354.6863117629514" stroke="#cccccc" stroke-width="1.7680608297254548"/><title>2020 → cambodia: 0.083333333</title></g><g style="mix-blend-mode: multiply;"><path d="M5,518.1463878425416C132.5,518.1463878425416,132.5,512.5950570331718,260,512.5950570331718" stroke="#cccccc" stroke-width="12.376425850511644"/><title>2021 → sudan: 0.583333333</title></g><g style="mix-blend-mode: multiply;"><path d="M5,532.8707224378567C132.5,532.8707224378567,132.5,438.0608364829836,260,438.0608364829836" stroke="#cccccc" stroke-width="7.07224334011855"/><title>2022 → india: 0.333333333</title></g><g style="mix-blend-mode: multiply;"><path d="M5,538.1749049482498C132.5,538.1749049482498,132.5,525.5513307987615,260,525.5513307987615" stroke="#cccccc" stroke-width="3.5361216806676397"/><title>2022 → liberia: 0.166666667</title></g><g style="mix-blend-mode: multiply;"><path d="M5,555.5513307987615C132.5,555.5513307987615,132.5,535.8555133091545,260,535.8555133091545" stroke="#cccccc" stroke-width="7.07224334011855"/><title>2023 → malawi: 0.333333333</title></g><g style="mix-blend-mode: multiply;"><path d="M5,548.4790874586429C132.5,548.4790874586429,132.5,410.0760456116858,260,410.0760456116858" stroke="#cccccc" stroke-width="7.07224334011855"/><title>2023 → nepal: 0.333333333</title></g><g style="mix-blend-mode: multiply;"><path d="M5,574.6958174896068C132.5,574.6958174896068,132.5,549.6958174896068,260,549.6958174896068" stroke="#cccccc" stroke-width="10.60836502078619"/><title>2024 → bangladesh: 0.5</title></g><g style="mix-blend-mode: multiply;"><path d="M5,566.7395437240173C132.5,566.7395437240173,132.5,416.2642585369416,260,416.2642585369416" stroke="#cccccc" stroke-width="5.304182510393095"/><title>2024 → nepal: 0.25</title></g><g style="mix-blend-mode: multiply;"><path d="M265,56.82509506235857C392.5,56.82509506235857,392.5,79.32509506235857,520,79.32509506235857" stroke="#9f8cf6" stroke-width="63.65019012471714"/><title>italy → architecture: 3</title></g><g style="mix-blend-mode: multiply;"><path d="M265,114.86692016628952C392.5,114.86692016628952,392.5,269.97148286246676,520,269.97148286246676" stroke="#81a5b8" stroke-width="21.21673004157238"/><title>germany → design: 1</title></g><g style="mix-blend-mode: multiply;"><path d="M265,141.0836502078619C392.5,141.0836502078619,392.5,291.1882129040391,520,291.1882129040391" stroke="#17becf" stroke-width="21.21673004157238"/><title>finland → design: 1</title></g><g style="mix-blend-mode: multiply;"><path d="M265,93.95437263511023C392.5,93.95437263511023,392.5,254.05893533128744,520,254.05893533128744" stroke="#9f8cf6" stroke-width="10.60836502078619"/><title>italy → design: 0.5</title></g><g style="mix-blend-mode: multiply;"><path d="M265,161.99619773904118C392.5,161.99619773904118,392.5,307.1007604352184,520,307.1007604352184" stroke="#4a90e2" stroke-width="10.60836502078619"/><title>netherlands → design: 0.5</title></g><g style="mix-blend-mode: multiply;"><path d="M265,188.21292778061354C392.5,188.21292778061354,392.5,328.3174904767908,520,328.3174904767908" stroke="#fff37d" stroke-width="31.82509506235857"/><title>japan → design: 1.5</title></g><g style="mix-blend-mode: multiply;"><path d="M265,230.34220535336522C392.5,230.34220535336522,392.5,132.36692016628953,520,132.36692016628953" stroke="#bcbd22" stroke-width="42.43346008314476"/><title>china → architecture: 2</title></g><g style="mix-blend-mode: multiply;"><path d="M265,337.00570340204655C392.5,337.00570340204655,392.5,367.79467678373754,520,367.79467678373754" stroke="#d7cf74" stroke-width="37.12927755153493"/><title>cambodia → development: 1.749999999</title></g><g style="mix-blend-mode: multiply;"><path d="M265,287.50000001060835C392.5,287.50000001060835,392.5,184.52471482353263,520,184.52471482353263" stroke="#d7cf74" stroke-width="61.8821292313415"/><title>cambodia → architecture: 2.9166666640000005</title></g><g style="mix-blend-mode: multiply;"><path d="M265,365.87452468820715C392.5,365.87452468820715,392.5,220.7699619495965,520,220.7699619495965" stroke="#e8f148" stroke-width="10.60836502078619"/><title>nepal → architecture: 0.5</title></g><g style="mix-blend-mode: multiply;"><path d="M265,432.75665397259047C392.5,432.75665397259047,392.5,234.91444864044195,520,234.91444864044195" stroke="#ced52f" stroke-width="17.68060836090474"/><title>india → architecture: 0.833333333</title></g><g style="mix-blend-mode: multiply;"><path d="M265,388.8593155701134C392.5,388.8593155701134,392.5,404.03992393101805,520,404.03992393101805" stroke="#e8f148" stroke-width="35.361216743026205"/><title>nepal → development: 1.6666666669999999</title></g><g style="mix-blend-mode: multiply;"><path d="M265,474.0019011304794C392.5,474.0019011304794,392.5,466.5019011304794,520,466.5019011304794" stroke="#4b5a8c" stroke-width="54.80988595487313"/><title>UK → environmental engineering: 2.5833333339999998</title></g><g style="mix-blend-mode: multiply;"><path d="M265,512.5950570331718C392.5,512.5950570331718,392.5,505.09505703317177,520,505.09505703317177" stroke="#7fa15b" stroke-width="12.376425850511644"/><title>sudan → humanitarian response: 0.583333333</title></g><g style="mix-blend-mode: multiply;"><path d="M265,525.5513307987615C392.5,525.5513307987615,392.5,513.0513307987615,520,513.0513307987615" stroke="#7ed321" stroke-width="3.5361216806676397"/><title>liberia → humanitarian response: 0.166666667</title></g><g style="mix-blend-mode: multiply;"><path d="M265,535.8555133091545C392.5,535.8555133091545,392.5,518.3555133091545,520,518.3555133091545" stroke="#417505" stroke-width="7.07224334011855"/><title>malawi → humanitarian response: 0.333333333</title></g><g style="mix-blend-mode: multiply;"><path d="M265,412.72813686688227C392.5,412.72813686688227,392.5,432.908745227787,520,432.908745227787" stroke="#e8f148" stroke-width="12.376425850511644"/><title>nepal → environmental engineering: 0.583333333</title></g><g style="mix-blend-mode: multiply;"><path d="M265,549.6958174896068C392.5,549.6958174896068,392.5,527.1958174896068,520,527.1958174896068" stroke="#e3ca77" stroke-width="10.60836502078619"/><title>bangladesh → humanitarian response: 0.5</title></g><g style="mix-blend-mode: multiply;"><path d="M525,79.32509506235857C652.5,79.32509506235857,652.5,71.82509506235863,780,71.82509506235863" stroke="#65beeb" stroke-width="63.65019012471714"/><title>architecture → student: 3</title></g><g style="mix-blend-mode: multiply;"><path d="M525,269.9714828624667C652.5,269.9714828624667,652.5,124.86692016628957,780,124.86692016628957" stroke="#ff7f0e" stroke-width="42.43346008314476"/><title>design → student: 2</title></g><g style="mix-blend-mode: multiply;"><path d="M525,312.4049429456115C652.5,312.4049429456115,652.5,195.2851711419489,780,195.2851711419489" stroke="#ff7f0e" stroke-width="42.43346008314476"/><title>design → assistant PM: 2</title></g><g style="mix-blend-mode: multiply;"><path d="M525,338.925855497577C652.5,338.925855497577,652.5,226.80608369391436,780,226.80608369391436" stroke="#ff7f0e" stroke-width="10.60836502078619"/><title>design → intern: 0.5</title></g><g style="mix-blend-mode: multiply;"><path d="M525,141.2072243467419C652.5,141.2072243467419,652.5,267.1673004263322,780,267.1673004263322" stroke="#65beeb" stroke-width="60.1140684440495"/><title>architecture → project manager: 2.833333333</title></g><g style="mix-blend-mode: multiply;"><path d="M525,176.56844107915975C652.5,176.56844107915975,652.5,376.48288979386035,780,376.48288979386035" stroke="#65beeb" stroke-width="10.60836502078619"/><title>architecture → team leader: 0.5</title></g><g style="mix-blend-mode: multiply;"><path d="M525,403.15589352676375C652.5,403.15589352676375,652.5,431.87262361076966,780,431.87262361076966" stroke="#2ca02c" stroke-width="37.12927755153493"/><title>development → consultant: 1.749999999</title></g><g style="mix-blend-mode: multiply;"><path d="M525,195.1330798549272C652.5,195.1330798549272,652.5,400.04752856962784,780,400.04752856962784" stroke="#65beeb" stroke-width="26.520912530748742"/><title>architecture → consultant: 1.249999999</title></g><g style="mix-blend-mode: multiply;"><path d="M525,226.07414447059796C652.5,226.07414447059796,652.5,473.1178707368335,780,473.1178707368335" stroke="#65beeb" stroke-width="35.36121670059274"/><title>architecture → lecturer: 1.6666666649999997</title></g><g style="mix-blend-mode: multiply;"><path d="M525,366.9106463794832C652.5,366.9106463794832,652.5,314.9049430198701,780,314.9049430198701" stroke="#2ca02c" stroke-width="35.361216743026205"/><title>development → project manager: 1.6666666669999999</title></g><g style="mix-blend-mode: multiply;"><path d="M525,438.21292774878845C652.5,438.21292774878845,652.5,157.57604565411924,780,157.57604565411924" stroke="#d62728" stroke-width="22.984790892514564"/><title>environmental engineering → student: 1.083333334</title></g><g style="mix-blend-mode: multiply;"><path d="M525,471.8060836514809C652.5,471.8060836514809,652.5,517.8992395435649,780,517.8992395435649" stroke="#d62728" stroke-width="44.201520912870215"/><title>environmental engineering → assistant researcher: 2.083333333</title></g><g style="mix-blend-mode: multiply;"><path d="M525,515.703422053958C652.5,515.703422053958,652.5,349.38212933742517,780,349.38212933742517" stroke="#9467bd" stroke-width="33.59315589208403"/><title>humanitarian response → project manager: 1.5833333330000001</title></g></g><g><text x="9" y="10.608365020786076" text-anchor="start"><tspan alignment-baseline="middle" x="9" style="font-family: Arial, sans-serif; font-size: 10px; fill: black; font-weight: bold;">2001</tspan></text><text x="269" y="62.12927757275166" text-anchor="start"><tspan alignment-baseline="middle" x="269" style="font-family: Arial, sans-serif; font-size: 10px; fill: black; font-weight: bold;">italy</tspan></text><text x="9" y="36.82509506235846" text-anchor="start"><tspan alignment-baseline="middle" x="9" style="font-family: Arial, sans-serif; font-size: 10px; fill: black; font-weight: bold;">2002</tspan></text><text x="9" y="63.04182510393084" text-anchor="start"><tspan alignment-baseline="middle" x="9" style="font-family: Arial, sans-serif; font-size: 10px; fill: black; font-weight: bold;">2003</tspan></text><text x="269" y="114.8669201662895" text-anchor="start"><tspan alignment-baseline="middle" x="269" style="font-family: Arial, sans-serif; font-size: 10px; fill: black; font-weight: bold;">germany</tspan></text><text x="9" y="89.25855514550321" text-anchor="start"><tspan alignment-baseline="middle" x="9" style="font-family: Arial, sans-serif; font-size: 10px; fill: black; font-weight: bold;">2004</tspan></text><text x="269" y="141.0836502078619" text-anchor="start"><tspan alignment-baseline="middle" x="269" style="font-family: Arial, sans-serif; font-size: 10px; fill: black; font-weight: bold;">finland</tspan></text><text x="9" y="115.4752851870756" text-anchor="start"><tspan alignment-baseline="middle" x="9" style="font-family: Arial, sans-serif; font-size: 10px; fill: black; font-weight: bold;">2005</tspan></text><text x="9" y="141.69201522864796" text-anchor="start"><tspan alignment-baseline="middle" x="9" style="font-family: Arial, sans-serif; font-size: 10px; fill: black; font-weight: bold;">2006</tspan></text><text x="269" y="161.99619773904118" text-anchor="start"><tspan alignment-baseline="middle" x="269" style="font-family: Arial, sans-serif; font-size: 10px; fill: black; font-weight: bold;">netherlands</tspan></text><text x="9" y="167.90874527022038" text-anchor="start"><tspan alignment-baseline="middle" x="9" style="font-family: Arial, sans-serif; font-size: 10px; fill: black; font-weight: bold;">2007</tspan></text><text x="269" y="188.21292778061354" text-anchor="start"><tspan alignment-baseline="middle" x="269" style="font-family: Arial, sans-serif; font-size: 10px; fill: black; font-weight: bold;">japan</tspan></text><text x="9" y="194.12547531179274" text-anchor="start"><tspan alignment-baseline="middle" x="9" style="font-family: Arial, sans-serif; font-size: 10px; fill: black; font-weight: bold;">2008</tspan></text><text x="269" y="230.34220535336522" text-anchor="start"><tspan alignment-baseline="middle" x="269" style="font-family: Arial, sans-serif; font-size: 10px; fill: black; font-weight: bold;">china</tspan></text><text x="9" y="220.34220535336516" text-anchor="start"><tspan alignment-baseline="middle" x="9" style="font-family: Arial, sans-serif; font-size: 10px; fill: black; font-weight: bold;">2009</tspan></text><text x="9" y="246.55893539493752" text-anchor="start"><tspan alignment-baseline="middle" x="9" style="font-family: Arial, sans-serif; font-size: 10px; fill: black; font-weight: bold;">2010</tspan></text><text x="269" y="306.0646387863758" text-anchor="start"><tspan alignment-baseline="middle" x="269" style="font-family: Arial, sans-serif; font-size: 10px; fill: black; font-weight: bold;">cambodia</tspan></text><text x="9" y="272.7756654259016" text-anchor="start"><tspan alignment-baseline="middle" x="9" style="font-family: Arial, sans-serif; font-size: 10px; fill: black; font-weight: bold;">2011</tspan></text><text x="9" y="298.9923954462572" text-anchor="start"><tspan alignment-baseline="middle" x="9" style="font-family: Arial, sans-serif; font-size: 10px; fill: black; font-weight: bold;">2012</tspan></text><text x="9" y="325.20912546661293" text-anchor="start"><tspan alignment-baseline="middle" x="9" style="font-family: Arial, sans-serif; font-size: 10px; fill: black; font-weight: bold;">2013</tspan></text><text x="9" y="351.4258554975769" text-anchor="start"><tspan alignment-baseline="middle" x="9" style="font-family: Arial, sans-serif; font-size: 10px; fill: black; font-weight: bold;">2014</tspan></text><text x="269" y="389.74334598497603" text-anchor="start"><tspan alignment-baseline="middle" x="269" style="font-family: Arial, sans-serif; font-size: 10px; fill: black; font-weight: bold;">nepal</tspan></text><text x="269" y="432.75665397259047" text-anchor="start"><tspan alignment-baseline="middle" x="269" style="font-family: Arial, sans-serif; font-size: 10px; fill: black; font-weight: bold;">india</tspan></text><text x="9" y="374.9904942839527" text-anchor="start"><tspan alignment-baseline="middle" x="9" style="font-family: Arial, sans-serif; font-size: 10px; fill: black; font-weight: bold;">2015</tspan></text><text x="9" y="393.25095055993546" text-anchor="start"><tspan alignment-baseline="middle" x="9" style="font-family: Arial, sans-serif; font-size: 10px; fill: black; font-weight: bold;">2016</tspan></text><text x="9" y="414.1634980911148" text-anchor="start"><tspan alignment-baseline="middle" x="9" style="font-family: Arial, sans-serif; font-size: 10px; fill: black; font-weight: bold;">2017</tspan></text><text x="9" y="439.49619771782443" text-anchor="start"><tspan alignment-baseline="middle" x="9" style="font-family: Arial, sans-serif; font-size: 10px; fill: black; font-weight: bold;">2018</tspan></text><text x="269" y="474.0019011304794" text-anchor="start"><tspan alignment-baseline="middle" x="269" style="font-family: Arial, sans-serif; font-size: 10px; fill: black; font-weight: bold;">UK</tspan></text><text x="9" y="464.8288973445341" text-anchor="start"><tspan alignment-baseline="middle" x="9" style="font-family: Arial, sans-serif; font-size: 10px; fill: black; font-weight: bold;">2019</tspan></text><text x="9" y="491.0456273861064" text-anchor="start"><tspan alignment-baseline="middle" x="9" style="font-family: Arial, sans-serif; font-size: 10px; fill: black; font-weight: bold;">2020</tspan></text><text x="9" y="515.4942965873449" text-anchor="start"><tspan alignment-baseline="middle" x="9" style="font-family: Arial, sans-serif; font-size: 10px; fill: black; font-weight: bold;">2021</tspan></text><text x="269" y="512.5950570331718" text-anchor="start"><tspan alignment-baseline="middle" x="269" style="font-family: Arial, sans-serif; font-size: 10px; fill: black; font-weight: bold;">sudan</tspan></text><text x="9" y="534.6387832781904" text-anchor="start"><tspan alignment-baseline="middle" x="9" style="font-family: Arial, sans-serif; font-size: 10px; fill: black; font-weight: bold;">2022</tspan></text><text x="269" y="525.5513307987615" text-anchor="start"><tspan alignment-baseline="middle" x="269" style="font-family: Arial, sans-serif; font-size: 10px; fill: black; font-weight: bold;">liberia</tspan></text><text x="9" y="552.0152091287022" text-anchor="start"><tspan alignment-baseline="middle" x="9" style="font-family: Arial, sans-serif; font-size: 10px; fill: black; font-weight: bold;">2023</tspan></text><text x="269" y="535.8555133091545" text-anchor="start"><tspan alignment-baseline="middle" x="269" style="font-family: Arial, sans-serif; font-size: 10px; fill: black; font-weight: bold;">malawi</tspan></text><text x="9" y="572.0437262344103" text-anchor="start"><tspan alignment-baseline="middle" x="9" style="font-family: Arial, sans-serif; font-size: 10px; fill: black; font-weight: bold;">2024</tspan></text><text x="269" y="549.695817489607" text-anchor="start"><tspan alignment-baseline="middle" x="269" style="font-family: Arial, sans-serif; font-size: 10px; fill: black; font-weight: bold;">bangladesh</tspan></text><text x="516" y="145.62737641044717" text-anchor="end"><tspan alignment-baseline="middle" x="516" style="font-family: Arial, sans-serif; font-size: 10px; fill: black; font-weight: bold;">architecture</tspan></text><text x="516" y="296.49239541443217" text-anchor="end"><tspan alignment-baseline="middle" x="516" style="font-family: Arial, sans-serif; font-size: 10px; fill: black; font-weight: bold;">design</tspan></text><text x="516" y="385.4752851552506" text-anchor="end"><tspan alignment-baseline="middle" x="516" style="font-family: Arial, sans-serif; font-size: 10px; fill: black; font-weight: bold;">development</tspan></text><text x="516" y="460.31368820522357" text-anchor="end"><tspan alignment-baseline="middle" x="516" style="font-family: Arial, sans-serif; font-size: 10px; fill: black; font-weight: bold;">environmental engineering</tspan></text><text x="516" y="515.703422053958" text-anchor="end"><tspan alignment-baseline="middle" x="516" style="font-family: Arial, sans-serif; font-size: 10px; fill: black; font-weight: bold;">humanitarian response</tspan></text><text x="776" y="104.53422055018828" text-anchor="end"><tspan alignment-baseline="middle" x="776" style="font-family: Arial, sans-serif; font-size: 10px; fill: black; font-weight: bold;">student</tspan></text><text x="776" y="195.28517114194887" text-anchor="end"><tspan alignment-baseline="middle" x="776" style="font-family: Arial, sans-serif; font-size: 10px; fill: black; font-weight: bold;">assistant PM</tspan></text><text x="776" y="226.80608369391433" text-anchor="end"><tspan alignment-baseline="middle" x="776" style="font-family: Arial, sans-serif; font-size: 10px; fill: black; font-weight: bold;">intern</tspan></text><text x="776" y="301.64448674388734" text-anchor="end"><tspan alignment-baseline="middle" x="776" style="font-family: Arial, sans-serif; font-size: 10px; fill: black; font-weight: bold;">project manager</tspan></text><text x="776" y="376.48288979386035" text-anchor="end"><tspan alignment-baseline="middle" x="776" style="font-family: Arial, sans-serif; font-size: 10px; fill: black; font-weight: bold;">team leader</tspan></text><text x="776" y="418.6121673453953" text-anchor="end"><tspan alignment-baseline="middle" x="776" style="font-family: Arial, sans-serif; font-size: 10px; fill: black; font-weight: bold;">consultant</tspan></text><text x="776" y="473.1178707368335" text-anchor="end"><tspan alignment-baseline="middle" x="776" style="font-family: Arial, sans-serif; font-size: 10px; fill: black; font-weight: bold;">lecturer</tspan></text><text x="776" y="517.8992395435649" text-anchor="end"><tspan alignment-baseline="middle" x="776" style="font-family: Arial, sans-serif; font-size: 10px; fill: black; font-weight: bold;">assistant researcher</tspan></text></g><g><text x="2.5" y="-4.000000000000114" text-anchor="middle" style="font-family: Arial, sans-serif; font-size: 12px; fill: rgb(123, 123, 123); font-weight: bold;">year</text><text x="262.5" y="21" text-anchor="middle" style="font-family: Arial, sans-serif; font-size: 12px; fill: rgb(123, 123, 123); font-weight: bold;">place</text><text x="522.5" y="43.5" text-anchor="middle" style="font-family: Arial, sans-serif; font-size: 12px; fill: rgb(123, 123, 123); font-weight: bold;">area</text><text x="782.5" y="36.00000000000006" text-anchor="middle" style="font-family: Arial, sans-serif; font-size: 12px; fill: rgb(123, 123, 123); font-weight: bold;">role</text></g></g></svg>